HIERARCHY
ROOT Hips
{
	OFFSET	0	0	0
	CHANNELS 6  Xposition Yposition Zposition Xrotation Yrotation Zrotation
	JOINT Spine
	{
		OFFSET	0	7.07069	1.42098
		CHANNELS 3  Xrotation Yrotation Zrotation
		JOINT Spine1
		{
			OFFSET	0	12.118	-2.16393
			CHANNELS 3  Xrotation Yrotation Zrotation
			JOINT Spine2
			{
				OFFSET	0	9.18588	0.984588
				CHANNELS 3  Xrotation Yrotation Zrotation
				JOINT Spine3
				{
					OFFSET	0	10.9928	3.26753
					CHANNELS 3  Xrotation Yrotation Zrotation
					JOINT Spine4
					{
						OFFSET	0	16.2728	-1.66623
						CHANNELS 3  Xrotation Yrotation Zrotation
						JOINT Neck
						{
							OFFSET	0	7.76851	-5.44228
							CHANNELS 3  Xrotation Yrotation Zrotation
							JOINT Head
							{
								OFFSET	0	9.32654	-2.79147
								CHANNELS 3  Xrotation Yrotation Zrotation
								End Site
								{
									OFFSET	0	19.4537	-0.941309
								}
							}
						}
					}
					JOINT LeftShoulder
					{
						OFFSET	-4.67409	19.7783	-9.32654
						CHANNELS 3  Xrotation Yrotation Zrotation
						JOINT LeftArm
						{
							OFFSET	-10.1845	-2.79147	3.58132
							CHANNELS 3  Xrotation Yrotation Zrotation
							JOINT LeftForeArm
							{
								OFFSET	-31.5067	-1.43802	2.24891
								CHANNELS 3  Xrotation Yrotation Zrotation
								JOINT LeftHand
								{
									OFFSET	-25.4342	-1.75765	1.81547
									CHANNELS 3  Xrotation Yrotation Zrotation
									End Site
									{
										OFFSET	-9.28223	-0.641455	0.662512
									}
								}
							}
						}
					}
					JOINT RightShoulder
					{
						OFFSET	4.67409	19.7783	-9.32654
						CHANNELS 3  Xrotation Yrotation Zrotation
						JOINT RightArm
						{
							OFFSET	10.1845	-2.79147	3.58132
							CHANNELS 3  Xrotation Yrotation Zrotation
							JOINT RightForeArm
							{
								OFFSET	31.5067	-1.43802	2.24891
								CHANNELS 3  Xrotation Yrotation Zrotation
								JOINT RightHand
								{
									OFFSET	25.4342	-1.75765	1.81547
									CHANNELS 3  Xrotation Yrotation Zrotation
									End Site
									{
										OFFSET	9.28223	-0.641455	0.662512
									}
								}
							}
						}
					}
				}
			}
		}
	}
	JOINT LeftUpLeg
	{
		OFFSET	-9.61129	-3.53534	-0.71049
		CHANNELS 3  Xrotation Yrotation Zrotation
		JOINT LeftLeg
		{
			OFFSET	-2.18601	-42.8339	-0.669588
			CHANNELS 3  Xrotation Yrotation Zrotation
			JOINT LeftFoot
			{
				OFFSET	-2.13734	-39.398	3.38822
				CHANNELS 3  Xrotation Yrotation Zrotation
				JOINT LeftToeBase
				{
					OFFSET	0	-4.79061	-12.7239
					CHANNELS 3  Xrotation Yrotation Zrotation
					End Site
					{
						OFFSET	0	-1.91625	-7.66498
					}
				}
			}
		}
	}
	JOINT RightUpLeg
	{
		OFFSET	9.61129	-3.53534	-0.71049
		CHANNELS 3  Xrotation Yrotation Zrotation
		JOINT RightLeg
		{
			OFFSET	2.18601	-42.8339	-0.669588
			CHANNELS 3  Xrotation Yrotation Zrotation
			JOINT RightFoot
			{
				OFFSET	2.13734	-39.398	3.38822
				CHANNELS 3  Xrotation Yrotation Zrotation
				JOINT RightToeBase
				{
					OFFSET	0	-4.79061	-12.7239
					CHANNELS 3  Xrotation Yrotation Zrotation
					End Site
					{
						OFFSET	0	-1.91625	-7.66498
					}
				}
			}
		}
	}
}
MOTION
Frames: 8
Frame Time: 0.020408
 0 -10.0139 2.87148 -0 0 -0 -0 0 -0 -0 0 -0 -0 0 -0 -0 0 -0 -0 0 -0 -0 0 -0 -0 0 -0 -0 0 -0 -0 0 -0 -0 0 -0 -0 0 -0 -0 0 -0 -0 0 -0 -0 0 -0 -0 0 -0 -0 0 -0 -0 0 -0 -0 0 -0 -0 0 -0 -0 0 -0 -0 0 -0 -0 0 -0 -0 0 -0
 89.1681 89.2039 -227.563 159.744 -29.0346 162.005 180 179.992 -178.513 171.768 179.983 -177.522 171.561 179.949 -177.522 173.897 179.992 -178.513 178.692 -179.989 -179.504 4.74318 10.3929 -10.9367 1.4155 29.6151 -1.38625 0.451652 -24.413 0.979695 5.20342 -0.314563 60.1887 99.4524 -35.8535 103.137 -0 41.0021 3.34894 178.834 -178.997 -177.771 29.938 34.4511 -82.4599 93.0791 6.36128 -99.9719 -0 -29.8513 -0.805337 157.695 138.74 -160.438 159.676 -165.48 179.887 14.5133 0.0276693 -9.7783 172.465 180 -180 8.25858 2.76755 12.1803 144.588 -172.056 179.952 4.0453 0.00693292 -11.4692 178.416 180 -180
 89.0196 89.331 -227.903 159.81 -29.0464 161.924 2.72956e-05 -0.00104306 1.49902 171.689 -179.998 -177.502 171.52 -179.994 -177.502 173.949 -179.999 -178.501 178.42 -179.986 -179.501 4.08995 10.8572 -10.9904 1.18258 30.3678 -1.27178 0.234683 -25.2807 0.50939 5.27688 -1.47278 60.4423 99.8869 -35.247 103.943 -0 40.8316 3.92676 179.16 179.048 -178.366 30.8835 34.6297 -84.3928 92.7953 7.3692 -97.2168 -0 -29.5498 0.99361 159.471 138.751 -161.462 159.719 -165.047 179.659 13.6322 0.0364854 -9.78295 172.435 180 -180 8.38409 3.01784 12.3484 144.621 -172.517 179.987 3.50005 -0.036556 -11.412 178.416 180 -180
 88.8293 89.4316 -228.058 159.81 -28.9429 161.805 0.000204061 -0.00765032 1.52792 171.623 -179.985 -177.453 171.47 -179.954 -177.453 173.951 -179.992 -178.472 178.291 -179.985 -179.491 3.82967 11.1839 -10.7789 1.0789 30.6342 -1.15152 0.0341043 -25.9656 0.0740516 5.75359 -2.70737 60.6688 100.922 -34.3688 105.962 -0 41.0985 4.6036 179.446 176.227 -178.898 31.2097 35.3208 -84.8067 92.0854 8.74601 -92.1794 -0 -29.4003 3.10033 161.417 138.922 -162.615 158.876 -164.313 179.682 12.5469 0.0198561 -9.57711 172.408 180 -180 8.42252 3.05757 12.5127 144.756 -172.933 179.983 3.13399 -0.055478 -11.3802 178.415 180 -180
 88.7232 89.4921 -228.257 159.953 -27.7178 162.097 0.000556336 -0.0205146 1.55343 171.552 -179.959 -177.411 171.414 -179.877 -177.411 173.942 -179.979 -178.447 178.175 -179.984 -179.482 3.57602 11.2862 -10.7646 0.989297 30.765 -1.10735 179.964 -153.96 179.922 6.0779 -3.78766 60.9556 102.114 -33.2632 108.515 -0 41.4254 5.42087 179.666 173.699 -179.323 31.7397 36.0602 -83.9291 91.05 9.96143 -87.1323 -0 -29.5753 5.12543 163.657 139.767 -164.07 157.41 -163.73 179.838 11.5791 0.0209229 -9.47201 172.385 180 -180 8.50962 3.11044 12.5614 145.055 -173.345 179.896 2.86922 5.31808e-05 -11.3662 178.415 180 -180
 88.7286 89.4777 -228.228 159.817 -27.4416 162.048 0.000527934 -0.0192799 1.56852 171.504 -179.961 -177.386 171.347 -179.884 -177.386 173.852 -179.981 -178.431 178.295 -179.984 -179.477 3.98852 11.3655 -10.8815 1.12838 31.0574 -1.169 179.934 -154.124 179.857 6.03495 -4.58455 61.3629 102.567 -32.6212 109.496 -0 41.733 6.04233 179.658 171.494 -179.298 31.0941 37.2136 -82.9259 90.2411 11.0185 -82.7856 -0 -30.0128 6.89212 164.112 140.907 -164.6 156.68 -163.228 179.829 11.8171 0.0459807 -9.48722 172.366 180 -180 8.48646 3.03378 12.6215 145.224 -173.624 179.934 2.73885 0.00847759 -11.3356 178.415 180 -180
 88.4723 89.416 -228.194 159.76 -28.0538 161.871 0.000560443 -0.0203215 1.57975 171.475 -179.959 -177.367 171.294 -179.878 -177.367 173.762 -179.98 -178.42 178.451 -179.986 -179.474 4.51059 11.5746 -10.981 1.30054 31.5464 -1.22307 179.763 -154.449 179.485 6.64263 -4.80506 61.4256 102.436 -32.5225 109.22 -0 42.242 6.23303 179.944 170.111 -179.885 30.7598 37.805 -82.1665 89.6557 11.9106 -79.9596 -0 -30.3127 8.34264 164.445 141.617 -164.672 156.271 -163.498 179.8 12.1777 0.0938137 -9.76764 172.35 180 -180 8.41686 3.05757 12.4969 145.356 -173.812 179.919 3.30717 -0.00687687 -11.313 178.42 180 -180
 88.2436 89.415 -228.316 159.904 -28.1695 161.905 0.000191551 -0.00690913 1.58808 171.48 -179.986 -177.353 171.273 -179.959 -177.353 173.694 -179.993 -178.412 178.621 -179.987 -179.471 5.06464 11.8924 -10.8382 1.47519 31.9246 -1.21054 179.428 -154.979 178.758 7.5362 -4.47494 61.5847 101.632 -32.8381 107.841 -0 42.4186 6.08475 0.338737 9.8897 -0.701624 30.8336 37.8067 -81.9577 89.3032 12.4528 -79.3107 -0 -30.7862 9.28231 164.535 141.944 -164.464 156.494 -164.046 179.785 11.928 0.0412712 -9.97947 172.336 180 -180 8.31663 3.01173 12.3761 146.148 -173.976 179.994 3.38982 -0.0197558 -11.2947 178.423 180 -180
